<?xml version="1.0" encoding="UTF-8"?>
<svg id="Layer_1" xmlns="http://www.w3.org/2000/svg" version="1.1" viewBox="0 0 1000 1000">
  <!-- Generator: Adobe Illustrator 29.1.0, SVG Export Plug-In . SVG Version: 2.1.0 Build 142)  -->
  <defs>
    <style>
      .st0 {
        fill: #050505;
      }

      .st1 {
        fill: #47bfda;
      }
    </style>
  </defs>
  <g>
    <path class="st1" d="M823.4,515.1c-19.8,23.5-32.7,51.1-46.9,77.9-12.5,23.6-25.2,47.1-37.7,70.7-1.4,2.6-3.2,3.9-6.1,4.5-34.8,7.4-66.7,21.1-94.9,43.1-13.3,10.4-24.3,23-35,35.8-7.3,8.7-14.5,17.5-21.9,26.1-2.7,3.2-5.7,6-8.5,9.1-23.5,26.2-53.4,25.5-79,14.9-12.9-5.3-24-13.5-35-21.8-9.9-7.5-19.7-15.2-29.8-22.5-24.2-17.4-50.6-27.8-81.7-25.7.8-1.5,1.3-2.7,1.9-3.8,8.1-15.1,18.6-28.3,30.4-40.7,14.7-15.5,29.8-30.7,44.1-46.5,27.8-30.7,55.1-61.8,82.6-92.8,1.6-1.8,3.1-1.9,4.8-.7,3.5,2.3,6.9,4.6,10.2,7.1,15.6,12.1,30.8,24.9,46.9,36.4,9.4,6.7,19.9,11.9,30.3,16.9,13.9,6.6,28,5.4,41.7-1.2,11.9-5.7,22.3-13.5,32.6-21.7,14.4-11.4,28.4-23.1,43.1-34,20.2-15,42.2-26.3,67.1-31.5,11.9-2.5,23.9-3.5,36.1-2.9.7,0,1.4-.1,2.1-.2,0,.3.2.7.3,1-5.2.4-10.5.4-15.6,1.3-39.6,7.3-74.7,23.8-104.7,50.8-6.9,6.2-13.5,12.8-20.2,19.2-11.5,11-22.7,22.2-35.9,31.2-9.8,6.6-20.4,8.8-32.1,7-13.5-2.1-24.9-8.6-34.9-17.4-9-7.9-17.5-16.3-26.1-24.7-9.7-9.5-19.7-18.6-31.3-25.8-2.5-1.5-4.2-1.6-6.4.4-12.4,11.6-25.6,22.4-37.2,34.7-35.9,37.8-64.2,81.8-98,121.3-.2.3-.5.6-.7,1,.3,0,.5.1.8.2,5.4.2,10.8,0,16,.8,16.5,2.6,30.5,11,43.2,21.3,11.9,9.7,23.3,20.1,34.9,30.2,10.3,9,20.8,17.8,33.4,23.6,15.1,6.8,29.4,5.7,43-3.9,3.1-2.2,6.2-4.4,8.8-7.1,7.4-7.8,14.6-15.7,21.7-23.7,9.9-11.1,18.7-23.4,29.7-33.3,32.9-29.8,70.7-51.1,114.1-61.7,1.7-.4,3.7-1.9,4.6-3.4,9.7-16.7,18.8-33.6,28.7-50.2,15.2-25.5,30.8-50.7,49.9-73.5,4.9-5.8,10.9-10.8,16.4-16.1.2.2.4.4.5.5Z"/>
    <path class="st0" d="M143.8,575c43.4-21.6,77.6-55.1,112.5-87.8,1.5,1,2.6,1.7,3.7,2.4,16.1,10.3,32.3,20.6,48.4,30.9,2.4,1.5,4.2,1.3,6.6,0,38.1-21.1,68-50.9,92.6-86.5,4.8-7,9.4-14.2,14.6-22.2,5.4,5.1,10.9,9.7,15.6,15,6.6,7.4,12.4,15.4,18.7,23,7.2,8.8,15.5,16.2,26,20.9,2.8,1.3,4.7,1.1,7-1.1,11.2-10.8,20.7-22.8,28.6-36.1,12.6-21.1,24.5-42.5,36.9-63.6,14.6-24.8,31-48.4,50.5-69.5,8.4-9.1,17.7-17.6,27.4-25.2,5.6-4.4,12.7-7.1,19.5-9.7,5.4-2.1,7.3-1,10.4,3.9,3.2,4.9,5.9,10.1,8.8,15.2,9.3,16.5,18.2,33.2,27.9,49.4,6.6,11,15,20.7,24.6,29.4,11.8,10.8,25.4,17.5,41.3,19.9,5.4.8,8.5-.7,11.1-5.6,1-1.9,1.8-4,2.9-5.9,2.7-4.6,8-6.6,12.6-4.1,18.1,10,37.8,15.8,57,22.8,5.6,2,11.1,4.2,17.6,6.8-6.5,1.9-11.8,1.1-17.1,0-17-3.5-32.7-10.5-48.4-17.6-6.3-2.9-11.5-1.9-15.6,3.8-2.2,3.1-3.8,6.8-5.3,10.4-1.5,3.5-2.4,7.2-3.9,10.6-1.2,2.8-2.9,5.3-4.6,8.4-4.9-3.2-9.5-6.1-13.8-9.1-17.7-12.5-33.1-27.4-47.1-43.8-15.8-18.5-31.1-37.3-46.7-56-4.8-5.7-9.9-11.1-14.7-16.8-1.5-1.8-2.7-1.8-4.7-.8-10.8,5.3-19.9,12.8-28.2,21.3-11.9,12.2-22.1,25.7-31.4,40-16.1,24.6-31.7,49.6-47.8,74.2-12.5,19.1-26.3,37.3-42.9,53.2-2,1.9-3.8,2.5-6.5,2-11.2-2-21.2-6.7-29.9-13.9-6.3-5.2-12.1-11-18.3-16.4-5.7-4.9-11.6-9.6-17.6-14.6-.7.9-.9,1.2-1.1,1.5-13.1,25.1-32.1,45.1-54.2,62.2-15.8,12.3-32.3,23.7-48.6,35.3-1.1.8-3.1,1.1-4.3.6-10-3.4-20.1-6.6-29.9-10.7-8.5-3.6-16.6-8.3-24.9-12.4-1-.5-3.1-.5-3.7.2-25.7,27-57.4,44.7-91.1,59.3-5.5,2.4-11,4.7-16.5,6.9-1.2.5-2.5.6-3.8.9,0-.3-.1-.6-.2-.9Z"/>
    <path class="st0" d="M860.1,554.5c-.7,1.3-1.3,2.7-2.2,4-16.1,25.5-32,51.1-48.3,76.4-20,31.1-40.5,61.9-57,95-1.4,2.8-3.3,1.9-5.2,1.7-21.9-2.7-43.1-.4-63.6,8-15.1,6.2-28.7,14.7-40.8,25.5-12.9,11.6-25.1,23.9-37.6,35.9-12.7,12.1-25.2,24.5-38.3,36.3-5.4,4.9-11.8,8.6-17.7,13-2,1.4-3.8,1.7-6.1.7-21.1-8.9-42.4-17.4-63.4-26.6-23.4-10.2-47-19.7-72.2-24.6-24.2-4.7-48.5-5.4-73-3-.7,0-1.4,0-2.8.2,1.4-1.3,2.3-2.1,3.2-2.8,23.6-19.1,49.7-22.3,77.8-12.2,14.2,5.1,27.3,12.3,40.3,19.9,14.5,8.4,28.9,16.9,43.6,24.8,9.8,5.3,20.3,8.9,31.5,10.1,9,1,17.2-.8,25.1-5.1,11.3-6.1,20.8-14.5,30.1-23.2,16.3-15.3,32.5-30.7,48.8-46,5.3-5,10.9-9.8,16.4-14.6,25.6-22.6,55.6-34.4,89.7-35.7,2.3,0,3.8-.9,5.1-2.7,13.9-20.2,27.9-40.4,41.7-60.6,13.2-19.2,25.7-39,39.7-57.5,9.4-12.5,21-23.4,31.7-35,.8-.9,1.9-1.7,2.9-2.5.2.2.5.4.7.5Z"/>
    <path class="st1" d="M309.1,383.4c-.6-5.3-1.6-10.5-1.9-15.8-1.4-34.6-3-69.2-3.7-103.9-.6-31-.1-62,.5-93.1.3.9.7,1.8,1,2.7,3.1,8.2,6.1,16.4,9.1,24.7.5,1.4.9,3,.9,4.6-.7,40.4-1.2,80.8-2.2,121.1-.5,19.9-2.2,39.7-3.3,59.6-.2,0-.3.1-.5.2Z"/>
    <path class="st1" d="M111.4,415.4c9.8,1.7,19.7,3.3,29.5,5.1,32,5.9,63.2,14.6,93.2,27.2,1.2.5,2.3,1.3,3.5,1.9-.1.3-.3.6-.4.9-2.1-.7-4.2-1.3-6.3-2.1-19.2-6.5-39.2-8.6-59.1-11.9-15.5-2.5-30.9-5.7-46.4-8.7-1.3-.2-2.5-1.3-3.5-2.2-3.6-3.4-7.1-6.9-10.7-10.3h0Z"/>
    <path class="st1" d="M297.3,476.2c2.4-9.5,8.7-15.5,17.9-17.9,16.3-4.4,31.4-1.1,45.3,8.2.4.3.9.4,1.2.6-4,7.8-10.5,11.1-19.1,9.5-4.8-.9-9.4-2.4-14.1-3.7-2.9-.8-5.8-1.8-8.8-2.4-8.3-1.9-16.1-1.2-22.3,5.8Z"/>
    <path class="st1" d="M392.2,342.2c3.2,5.6,3.8,11.8.9,17.9-2,4.2-4.7,8.2-7.6,12-3,4-6.5,7.6-9.8,11.3-6.6,7.5-12.9,15.3-15,25.6-.4,0-.8,0-1.2-.1,0-3.2-.7-6.6.2-9.4,1.7-5.5,4-11,6.8-16,3.6-6.5,8.1-12.4,12.1-18.7,4.6-7.4,9.1-14.9,13.6-22.4Z"/>
    <path class="st1" d="M538.2,375.8c-22.9,17.4-46.6,33.3-72.9,45.3-.8.4-1.6.7-2.4.9-.4.1-1,0-2.1-.1,1.3-.8,2.1-1.3,3-1.9,7.7-5.2,15.5-10.2,23-15.6,12.4-8.9,24.6-18.1,36.9-26.9,1.5-1,3.7-1.1,5.7-1.3,2.9-.3,5.8-.2,8.7-.3h0Z"/>
    <path class="st1" d="M215.8,375.5c2-2.6,4.8-3.3,7.8-2.3,2.4.8,4.7,2,6.8,3.4,8.9,6.2,26.6,28.1,30.7,38.9-3-2.1-6.4-3.8-9.1-6.2-5.1-4.7-9.8-9.9-14.6-14.9-3.3-3.4-6.4-7.1-9.9-10.2-3.5-3.1-7.6-5.7-11.7-8.8Z"/>
    <path class="st1" d="M823.9,513.8c0,.3,0,.4.3.5-.3.3-.6.6-.9.9-.2-.2-.4-.4-.5-.5.4-.3.7-.5,1.1-.8Z"/>
    <polygon class="st1" points="111.4 415.3 111.3 415.3 111.4 415.4 111.4 415.3"/>
    <polygon class="st1" points="538.1 375.8 538.2 375.7 538.1 375.8 538.1 375.8"/>
    <path class="st0" d="M860.3,553.3c0,0,.2.2.2.2,0,0-.1.1-.2.2,0,0-.2-.2-.2-.2,0,0,.1-.1.2-.2Z"/>
    <path class="st1" d="M609.3,636.6c-.3,1.2-.4,2.4-.9,3.5-19.2,45.6-43.4,88.4-70.3,129.8-.2.4-.6.7-1.7.8,1.2-5.5,2.1-11,3.6-16.4,5.7-20.7,15.5-39.5,27.1-57.3,13.4-20.4,27.6-40.2,41.4-60.3.3,0,.6,0,.8,0Z"/>
  </g>
  <path class="st0" d="M500,923.4c-113.1,0-219.4-44-299.4-124-80-80-124-186.3-124-299.4s44-219.4,124-299.4c80-80,186.3-124,299.4-124s219.4,44,299.4,124c80,80,124,186.3,124,299.4s-44,219.4-124,299.4c-80,80-186.3,124-299.4,124ZM500,91c-225.5,0-409,183.5-409,409s183.5,409,409,409,409-183.5,409-409S725.5,91,500,91Z"/>
</svg>